<svg width="232" height="30" viewBox="0 0 232 30" fill="none" xmlns="http://www.w3.org/2000/svg">
<path d="M0.300442 23.4507C6.3983 23.8732 10.5266 24.0845 12.6853 24.0845C13.1972 24.0845 13.5978 23.9014 13.8871 23.5352C14.1987 23.1408 14.3544 22.6197 14.3544 21.9718V18.169H6.67648C4.33972 18.169 2.63721 17.507 1.56897 16.1831C0.522991 14.831 0 12.6761 0 9.71831V8.45071C0 5.49296 0.522991 3.35211 1.56897 2.02817C2.63721 0.676057 4.33972 0 6.67648 0H18.3937V5.91549H8.01178C6.67649 5.91549 6.00884 6.76056 6.00884 8.45071V9.29578C6.00884 10.9859 6.67649 11.831 8.01178 11.831H14.0206C16.2016 11.831 17.804 12.4789 18.8277 13.7746C19.8514 15.0704 20.3633 17.0986 20.3633 19.8592V21.9718C20.3633 24.7324 19.8514 26.7606 18.8277 28.0563C17.804 29.3521 16.2016 30 14.0206 30C12.8856 30 11.6838 29.9718 10.4153 29.9155L7.34413 29.7465C5.07413 29.6056 2.72623 29.4084 0.300442 29.1549V23.4507Z" fill="#FFE81F"/>
<path d="M37.5591 29.5775H31.5503V5.91549H24.54V0H44.5694V5.91549H37.5591V29.5775Z" fill="#FFE81F"/>
<path d="M53.2424 29.5775H46.7328L55.5791 0H62.2556L71.102 29.5775H64.5924L63.0902 24.2958H54.7446L53.2424 29.5775ZM56.2468 18.8028H61.588L58.9174 8.87324L56.2468 18.8028Z" fill="#FFE81F"/>
<path d="M77.2764 0H91.297C93.6338 0 95.3252 0.676057 96.3711 2.02817C97.4394 3.35211 97.9735 5.49296 97.9735 8.45071V12.2535C97.9735 14.5915 97.6619 16.4084 97.0388 17.7042C96.4379 19 95.4698 19.8592 94.1345 20.2817L98.3073 29.5775H91.7978L87.9588 20.7042H83.2852V29.5775H77.2764V0ZM91.9647 8.45071C91.9647 6.76056 91.297 5.91549 89.9617 5.91549H83.2852V14.7887H89.9617C91.297 14.7887 91.9647 13.9437 91.9647 12.2535V8.45071Z" fill="#FFE81F"/>
<path d="M137.349 0L141.355 19.0141L144.86 0H151.37L145.027 29.5775H138.684L134.679 11.1972L130.673 29.5775H124.33L117.987 0H124.497L128.002 19.0141L132.008 0H137.349Z" fill="#FFE81F"/>
<path d="M160.071 29.5775H153.562L162.408 0H169.085L177.931 29.5775H171.421L169.919 24.2958H161.574L160.071 29.5775ZM163.076 18.8028H168.417L165.746 8.87324L163.076 18.8028Z" fill="#FFE81F"/>
<path d="M184.105 0H198.126C200.463 0 202.154 0.676057 203.2 2.02817C204.268 3.35211 204.802 5.49296 204.802 8.45071V12.2535C204.802 14.5915 204.491 16.4084 203.868 17.7042C203.267 19 202.299 19.8592 200.964 20.2817L205.136 29.5775H198.627L194.788 20.7042H190.114V29.5775H184.105V0ZM198.794 8.45071C198.794 6.76056 198.126 5.91549 196.791 5.91549H190.114V14.7887H196.791C198.126 14.7887 198.794 13.9437 198.794 12.2535V8.45071Z" fill="#FFE81F"/>
<path d="M211.937 23.4507C218.035 23.8732 222.163 24.0845 224.322 24.0845C224.834 24.0845 225.235 23.9014 225.524 23.5352C225.835 23.1408 225.991 22.6197 225.991 21.9718V18.169H218.313C215.976 18.169 214.274 17.507 213.206 16.1831C212.16 14.831 211.637 12.6761 211.637 9.71831V8.45071C211.637 5.49296 212.16 3.35211 213.206 2.02817C214.274 0.676057 215.976 0 218.313 0H230.03V5.91549H219.649C218.313 5.91549 217.646 6.76056 217.646 8.45071V9.29578C217.646 10.9859 218.313 11.831 219.649 11.831H225.657C227.838 11.831 229.441 12.4789 230.464 13.7746C231.488 15.0704 232 17.0986 232 19.8592V21.9718C232 24.7324 231.488 26.7606 230.464 28.0563C229.441 29.3521 227.838 30 225.657 30C224.522 30 223.321 29.9718 222.052 29.9155L218.981 29.7465C216.711 29.6056 214.363 29.4084 211.937 29.1549V23.4507Z" fill="#FFE81F"/>
</svg>
